<?xml version="1.0" standalone="no"?>
<!DOCTYPE svg PUBLIC "-//W3C//DTD SVG 1.1//EN"
"http://www.w3.org/Graphics/SVG/1.1/DTD/svg11.dtd">
<!-- Creator: fig2dev Version 3.2 Patchlevel 5e -->
<!-- CreationDate: Wed Mar 15 17:53:33 2017 -->
<!-- Magnification: 1.050 -->
<svg	xmlns="http://www.w3.org/2000/svg"
	xmlns:xlink="http://www.w3.org/1999/xlink"
	width="5.5in" height="5.3in"
	viewBox="3247 1976 6614 6350">
<g style="stroke-width:.025in; fill:none">
<!-- Arc -->
<path style="stroke:#000000;stroke-width:16;stroke-linecap:butt;"
d="M 3674,4339 A 381 381  0  1  1  3674  5098 " />
<!-- Arc -->
<path style="stroke:#000000;stroke-width:16;stroke-linecap:butt;"
d="M 3674,5098 A 381 381  0  1  1  3674  5857 " />
<!-- Arc -->
<path style="stroke:#000000;stroke-width:16;stroke-linecap:butt;"
d="M 3674,5857 A 381 381  0  1  1  3674  6617 " />
<!-- Line -->
<polyline points="3674,3026
3674,4339
" style="stroke:#000000;stroke-width:8;
stroke-linejoin:miter; stroke-linecap:butt;
"/>
<!-- Line -->
<polyline points="3674,6617
3674,7928
" style="stroke:#000000;stroke-width:8;
stroke-linejoin:miter; stroke-linecap:butt;
"/>
<!-- Line -->
<polyline points="3466,8067
3881,8067
" style="stroke:#000000;stroke-width:8;
stroke-linejoin:miter; stroke-linecap:butt;
"/>
<!-- Line -->
<polyline points="3259,7928
4018,7928
" style="stroke:#000000;stroke-width:8;
stroke-linejoin:miter; stroke-linecap:butt;
"/>
<!-- Line -->
<polyline points="3605,8204
3812,8204
" style="stroke:#000000;stroke-width:8;
stroke-linejoin:miter; stroke-linecap:butt;
"/>
<!-- Circle -->
<circle cx="3674" cy="2337" r="69"
 style="stroke:#000000;stroke-width:8;"/>
<!-- Line -->
<polyline points="3674,2406
3674,3441
" style="stroke:#000000;stroke-width:8;
stroke-linejoin:miter; stroke-linecap:butt;
"/>
<!-- Line -->
<polyline points="4718,4954
6093,4954
" style="stroke:#000000;stroke-width:48;
stroke-linejoin:miter; stroke-linecap:butt;
"/>
<!-- Line -->
<polyline points="4718,5196
6093,5196
" style="stroke:#000000;stroke-width:48;
stroke-linejoin:miter; stroke-linecap:butt;
"/>
<!-- Line -->
<polyline points="4718,5439
6093,5439
" style="stroke:#000000;stroke-width:48;
stroke-linejoin:miter; stroke-linecap:butt;
"/>
<!-- Line -->
<polyline points="8322,4549
8593,4451
" style="stroke:#000000;stroke-width:8;
stroke-linejoin:miter; stroke-linecap:butt;
"/>
<!-- Line -->
<polyline points="8318,4551
8587,4648
" style="stroke:#000000;stroke-width:8;
stroke-linejoin:miter; stroke-linecap:butt;
"/>
<!-- Line -->
<polyline points="8322,4352
8593,4253
" style="stroke:#000000;stroke-width:8;
stroke-linejoin:miter; stroke-linecap:butt;
"/>
<!-- Line -->
<polyline points="8318,4354
8587,4454
" style="stroke:#000000;stroke-width:8;
stroke-linejoin:miter; stroke-linecap:butt;
"/>
<!-- Line -->
<polyline points="8318,4157
8587,4257
" style="stroke:#000000;stroke-width:8;
stroke-linejoin:miter; stroke-linecap:butt;
"/>
<!-- Line -->
<polyline points="8471,4081
8322,4155
" style="stroke:#000000;stroke-width:8;
stroke-linejoin:miter; stroke-linecap:butt;
"/>
<!-- Line -->
<polyline points="8471,3712
8471,4081
" style="stroke:#000000;stroke-width:8;
stroke-linejoin:miter; stroke-linecap:butt;
"/>
<!-- Line -->
<polyline points="8446,4720
8446,5090
" style="stroke:#000000;stroke-width:8;
stroke-linejoin:miter; stroke-linecap:butt;
"/>
<!-- Line -->
<polyline points="8593,4647
8446,4720
" style="stroke:#000000;stroke-width:8;
stroke-linejoin:miter; stroke-linecap:butt;
"/>
<!-- Line -->
<polyline points="8790,5854
9085,5854
" style="stroke:#000000;stroke-width:48;
stroke-linejoin:miter; stroke-linecap:butt;
"/>
<!-- Line -->
<polyline points="8938,5730
8938,5975
" style="stroke:#000000;stroke-width:48;
stroke-linejoin:miter; stroke-linecap:butt;
"/>
<!-- Line -->
<polygon points="9162,5950
9165,5357
9676,5656
9162,5950
" style="stroke:#000000;stroke-width:8;
stroke-linejoin:miter; stroke-linecap:butt;
"/>
<!-- Line -->
<polyline points="8814,5435
9037,5435
" style="stroke:#000000;stroke-width:48;
stroke-linejoin:miter; stroke-linecap:butt;
"/>
<!-- Line -->
<polyline points="8347,3417
8619,3318
" style="stroke:#000000;stroke-width:8;
stroke-linejoin:miter; stroke-linecap:butt;
"/>
<!-- Line -->
<polyline points="8342,3418
8614,3518
" style="stroke:#000000;stroke-width:8;
stroke-linejoin:miter; stroke-linecap:butt;
"/>
<!-- Line -->
<polyline points="8347,3219
8619,3121
" style="stroke:#000000;stroke-width:8;
stroke-linejoin:miter; stroke-linecap:butt;
"/>
<!-- Line -->
<polyline points="8342,3223
8614,3321
" style="stroke:#000000;stroke-width:8;
stroke-linejoin:miter; stroke-linecap:butt;
"/>
<!-- Line -->
<polyline points="8342,3026
8614,3124
" style="stroke:#000000;stroke-width:8;
stroke-linejoin:miter; stroke-linecap:butt;
"/>
<!-- Line -->
<polyline points="8496,2949
8347,3022
" style="stroke:#000000;stroke-width:8;
stroke-linejoin:miter; stroke-linecap:butt;
"/>
<!-- Line -->
<polyline points="8496,2579
8496,2949
" style="stroke:#000000;stroke-width:8;
stroke-linejoin:miter; stroke-linecap:butt;
"/>
<!-- Line -->
<polyline points="8471,3589
8471,3959
" style="stroke:#000000;stroke-width:8;
stroke-linejoin:miter; stroke-linecap:butt;
"/>
<!-- Line -->
<polyline points="8619,3514
8471,3589
" style="stroke:#000000;stroke-width:8;
stroke-linejoin:miter; stroke-linecap:butt;
"/>
<!-- Line -->
<polyline points="7757,3736
8052,3736
" style="stroke:#000000;stroke-width:48;
stroke-linejoin:miter; stroke-linecap:butt;
"/>
<!-- Line -->
<polyline points="7905,3613
7905,3860
" style="stroke:#000000;stroke-width:48;
stroke-linejoin:miter; stroke-linecap:butt;
"/>
<!-- Line -->
<polygon points="7679,4202
7677,3610
7166,3909
7679,4202
" style="stroke:#000000;stroke-width:8;
stroke-linejoin:miter; stroke-linecap:butt;
"/>
<!-- Line -->
<polyline points="7905,3514
7905,2579
8496,2579
" style="stroke:#000000;stroke-width:8;
stroke-linejoin:miter; stroke-linecap:butt;
"/>
<!-- Line -->
<polyline points="7191,3909
6748,3909
6748,6174
8397,6174
" style="stroke:#000000;stroke-width:8;
stroke-linejoin:miter; stroke-linecap:butt;
"/>
<!-- Line -->
<polyline points="8446,5017
8765,5017
8765,5409
" style="stroke:#000000;stroke-width:8;
stroke-linejoin:miter; stroke-linecap:butt;
"/>
<!-- Line -->
<polyline points="8446,4894
7953,4894
7953,4228
" style="stroke:#000000;stroke-width:8;
stroke-linejoin:miter; stroke-linecap:butt;
"/>
<!-- Line -->
<polyline points="8299,5804
8567,5706
" style="stroke:#000000;stroke-width:8;
stroke-linejoin:miter; stroke-linecap:butt;
"/>
<!-- Line -->
<polyline points="8292,5806
8563,5905
" style="stroke:#000000;stroke-width:8;
stroke-linejoin:miter; stroke-linecap:butt;
"/>
<!-- Line -->
<polyline points="8299,5608
8567,5509
" style="stroke:#000000;stroke-width:8;
stroke-linejoin:miter; stroke-linecap:butt;
"/>
<!-- Line -->
<polyline points="8292,5610
8563,5708
" style="stroke:#000000;stroke-width:8;
stroke-linejoin:miter; stroke-linecap:butt;
"/>
<!-- Line -->
<polyline points="8292,5413
8563,5511
" style="stroke:#000000;stroke-width:8;
stroke-linejoin:miter; stroke-linecap:butt;
"/>
<!-- Line -->
<polyline points="8446,5336
8299,5409
" style="stroke:#000000;stroke-width:8;
stroke-linejoin:miter; stroke-linecap:butt;
"/>
<!-- Line -->
<polyline points="8446,4966
8446,5336
" style="stroke:#000000;stroke-width:8;
stroke-linejoin:miter; stroke-linecap:butt;
"/>
<!-- Line -->
<polyline points="8422,5975
8422,6345
" style="stroke:#000000;stroke-width:8;
stroke-linejoin:miter; stroke-linecap:butt;
"/>
<!-- Line -->
<polyline points="8567,5902
8422,5975
" style="stroke:#000000;stroke-width:8;
stroke-linejoin:miter; stroke-linecap:butt;
"/>
<!-- Line -->
<polyline points="8199,6617
8643,6617
" style="stroke:#000000;stroke-width:8;
stroke-linejoin:miter; stroke-linecap:butt;
"/>
<!-- Line -->
<polyline points="8422,6222
8422,6617
" style="stroke:#000000;stroke-width:8;
stroke-linejoin:miter; stroke-linecap:butt;
"/>
<!-- Line -->
<polyline points="8199,6689
8643,6689
" style="stroke:#000000;stroke-width:8;
stroke-linejoin:miter; stroke-linecap:butt;
"/>
<!-- Line -->
<polyline points="8422,7084
8422,6689
" style="stroke:#000000;stroke-width:8;
stroke-linejoin:miter; stroke-linecap:butt;
"/>
<!-- Line -->
<polyline points="7806,4155
8028,4155
" style="stroke:#000000;stroke-width:48;
stroke-linejoin:miter; stroke-linecap:butt;
"/>
<!-- Line -->
<polyline points="8471,3785
9848,3785
9848,5656
9676,5656
" style="stroke:#000000;stroke-width:8;
stroke-linejoin:miter; stroke-linecap:butt;
"/>
<!-- Line -->
<polyline points="8176,8165
8593,8165
" style="stroke:#000000;stroke-width:8;
stroke-linejoin:miter; stroke-linecap:butt;
"/>
<!-- Line -->
<polyline points="8274,8241
8520,8241
" style="stroke:#000000;stroke-width:8;
stroke-linejoin:miter; stroke-linecap:butt;
"/>
<!-- Line -->
<polyline points="8347,8314
8446,8314
" style="stroke:#000000;stroke-width:8;
stroke-linejoin:miter; stroke-linecap:butt;
"/>
<!-- Line -->
<polyline points="8274,7625
8544,7527
" style="stroke:#000000;stroke-width:8;
stroke-linejoin:miter; stroke-linecap:butt;
"/>
<!-- Line -->
<polyline points="8268,7628
8538,7727
" style="stroke:#000000;stroke-width:8;
stroke-linejoin:miter; stroke-linecap:butt;
"/>
<!-- Line -->
<polyline points="8274,7428
8544,7331
" style="stroke:#000000;stroke-width:8;
stroke-linejoin:miter; stroke-linecap:butt;
"/>
<!-- Line -->
<polyline points="8268,7430
8538,7529
" style="stroke:#000000;stroke-width:8;
stroke-linejoin:miter; stroke-linecap:butt;
"/>
<!-- Line -->
<polyline points="8268,7234
8538,7333
" style="stroke:#000000;stroke-width:8;
stroke-linejoin:miter; stroke-linecap:butt;
"/>
<!-- Line -->
<polyline points="8422,7158
8274,7232
" style="stroke:#000000;stroke-width:8;
stroke-linejoin:miter; stroke-linecap:butt;
"/>
<!-- Line -->
<polyline points="8422,6789
8422,7158
" style="stroke:#000000;stroke-width:8;
stroke-linejoin:miter; stroke-linecap:butt;
"/>
<!-- Line -->
<polyline points="8397,7797
8397,8165
" style="stroke:#000000;stroke-width:8;
stroke-linejoin:miter; stroke-linecap:butt;
"/>
<!-- Line -->
<polyline points="8544,7724
8397,7797
" style="stroke:#000000;stroke-width:8;
stroke-linejoin:miter; stroke-linecap:butt;
"/>
<!-- Line -->
<polyline points="8422,6911
8814,6911
8814,5951
" style="stroke:#000000;stroke-width:8;
stroke-linejoin:miter; stroke-linecap:butt;
"/>
<!-- Circle -->
<circle cx="8497" cy="2022" r="37"
 style="stroke:#000000;stroke-width:8;"/>
<!-- Line -->
<polyline points="8497,2058
8497,2617
" style="stroke:#000000;stroke-width:8;
stroke-linejoin:miter; stroke-linecap:butt;
"/>
</g>
</svg>
